<mxfile host="Electron" modified="2024-04-07T07:04:44.711Z" agent="Mozilla/5.0 (Windows NT 10.0; Win64; x64) AppleWebKit/537.36 (KHTML, like Gecko) draw.io/24.1.0 Chrome/120.0.6099.109 Electron/28.1.0 Safari/537.36" etag="MVj1uO_wQGkm457XPXgI" version="24.1.0" type="device">
  <diagram name="Página-1" id="wAQNe0Ck_yKVVoO9ijSX">
    <mxGraphModel dx="2247" dy="830" grid="1" gridSize="10" guides="1" tooltips="1" connect="1" arrows="1" fold="1" page="1" pageScale="1" pageWidth="827" pageHeight="1169" background="#CCE5FF" math="0" shadow="0">
      <root>
        <mxCell id="0" />
        <mxCell id="1" parent="0" />
        <mxCell id="hIHACkJwHsmprk24S0Q3-1" value="&lt;b style=&quot;font-size: 15px;&quot;&gt;&lt;font style=&quot;font-size: 15px;&quot; color=&quot;#000000&quot; face=&quot;Comic Sans MS&quot;&gt;16 Hacer un programa para ingresar 5 números, luego informar los 2 mayores valores ingresados, aclarando cual es el máximo y cuál el que le sigue. &lt;br&gt;&lt;br&gt;Ejemplo A: 10, 8, 12, 14, 3 el resultado será 14 y 12.&lt;br&gt;Ejemplo B: 14, 8, 12, 14 ,3 el resultado será 14 y 14.&lt;br&gt;Ejemplo C: -4, -8, -12, -20, -2 el resultado será -2 y -4&lt;br&gt;Ejemplo D: 100, 20, 5, - 15, 70, el resultado será 100 y 70.&lt;br&gt;Se recomienda probar el diagrama que vaya a desarrollar con todos los ejemplos, en particular el Ejemplo D, en el cual el máximo de la lista aparece en el primer lugar y que si no se tiene precaución puede llevar a resultados como 100 como máximo y 100 como segundo máximo. ¡ESO ES INCORRECTO! El resultado debe ser 100 y 70.&lt;/font&gt;&lt;/b&gt;" style="text;whiteSpace=wrap;html=1;fontFamily=Architects Daughter;fontSource=https%3A%2F%2Ffonts.googleapis.com%2Fcss%3Ffamily%3DArchitects%2BDaughter;" vertex="1" parent="1">
          <mxGeometry x="44" width="740" height="230" as="geometry" />
        </mxCell>
        <mxCell id="hIHACkJwHsmprk24S0Q3-102" value="" style="group;aspect=fixed;" vertex="1" connectable="0" parent="1">
          <mxGeometry x="-50" y="270" width="734" height="1310" as="geometry" />
        </mxCell>
        <mxCell id="hIHACkJwHsmprk24S0Q3-6" value="" style="group;aspect=fixed;" vertex="1" connectable="0" parent="hIHACkJwHsmprk24S0Q3-102">
          <mxGeometry x="390" width="50" height="50" as="geometry" />
        </mxCell>
        <mxCell id="hIHACkJwHsmprk24S0Q3-2" value="" style="strokeWidth=2;html=1;shape=mxgraph.flowchart.start_2;whiteSpace=wrap;rounded=0;labelBackgroundColor=none;strokeColor=#000000;align=center;verticalAlign=middle;fontFamily=Helvetica;fontSize=12;fontColor=default;fillColor=#d5e8d4;" vertex="1" parent="hIHACkJwHsmprk24S0Q3-6">
          <mxGeometry width="50" height="50" as="geometry" />
        </mxCell>
        <mxCell id="hIHACkJwHsmprk24S0Q3-4" value="&lt;b&gt;&lt;font style=&quot;font-size: 20px;&quot; color=&quot;#000000&quot; face=&quot;Comic Sans MS&quot;&gt;I&lt;/font&gt;&lt;/b&gt;" style="text;strokeColor=none;align=center;fillColor=none;html=1;verticalAlign=middle;whiteSpace=wrap;rounded=0;fontFamily=Architects Daughter;fontSource=https%3A%2F%2Ffonts.googleapis.com%2Fcss%3Ffamily%3DArchitects%2BDaughter;" vertex="1" parent="hIHACkJwHsmprk24S0Q3-6">
          <mxGeometry x="10" y="10" width="30" height="30" as="geometry" />
        </mxCell>
        <mxCell id="hIHACkJwHsmprk24S0Q3-7" value="" style="group;aspect=fixed;" vertex="1" connectable="0" parent="hIHACkJwHsmprk24S0Q3-102">
          <mxGeometry x="388" y="1260" width="50" height="50" as="geometry" />
        </mxCell>
        <mxCell id="hIHACkJwHsmprk24S0Q3-3" value="" style="strokeWidth=2;html=1;shape=mxgraph.flowchart.start_2;whiteSpace=wrap;rounded=0;labelBackgroundColor=none;strokeColor=#000000;align=center;verticalAlign=middle;fontFamily=Helvetica;fontSize=12;fontColor=default;fillColor=#d5e8d4;" vertex="1" parent="hIHACkJwHsmprk24S0Q3-7">
          <mxGeometry width="50" height="50" as="geometry" />
        </mxCell>
        <mxCell id="hIHACkJwHsmprk24S0Q3-5" value="&lt;b&gt;&lt;font style=&quot;font-size: 20px;&quot; color=&quot;#000000&quot; face=&quot;Comic Sans MS&quot;&gt;F&lt;/font&gt;&lt;/b&gt;" style="text;strokeColor=none;align=center;fillColor=none;html=1;verticalAlign=middle;whiteSpace=wrap;rounded=0;fontFamily=Architects Daughter;fontSource=https://fonts.googleapis.com/css?family=Architects+Daughter;" vertex="1" parent="hIHACkJwHsmprk24S0Q3-7">
          <mxGeometry x="10" y="10" width="30" height="30" as="geometry" />
        </mxCell>
        <mxCell id="hIHACkJwHsmprk24S0Q3-10" value="" style="shape=trapezoid;perimeter=trapezoidPerimeter;whiteSpace=wrap;html=1;fixedSize=1;rounded=0;labelBackgroundColor=none;strokeColor=#121211;strokeWidth=2;align=center;verticalAlign=middle;fontFamily=Helvetica;fontSize=12;fontColor=default;fillColor=#d5e8d4;direction=west;container=1;" vertex="1" parent="hIHACkJwHsmprk24S0Q3-102">
          <mxGeometry x="352.5" y="90" width="125" height="40" as="geometry">
            <mxRectangle x="-1020" y="-650" width="50" height="40" as="alternateBounds" />
          </mxGeometry>
        </mxCell>
        <mxCell id="hIHACkJwHsmprk24S0Q3-13" value="&lt;b&gt;&lt;font style=&quot;font-size: 16px;&quot; color=&quot;#000000&quot; face=&quot;Comic Sans MS&quot;&gt;anterior&lt;/font&gt;&lt;/b&gt;" style="text;strokeColor=none;align=center;fillColor=none;html=1;verticalAlign=middle;whiteSpace=wrap;rounded=0;fontFamily=Architects Daughter;fontSource=https://fonts.googleapis.com/css?family=Architects+Daughter;" vertex="1" parent="hIHACkJwHsmprk24S0Q3-10">
          <mxGeometry x="17.5" width="90" height="40" as="geometry" />
        </mxCell>
        <mxCell id="hIHACkJwHsmprk24S0Q3-12" value="" style="shape=trapezoid;perimeter=trapezoidPerimeter;whiteSpace=wrap;html=1;fixedSize=1;rounded=0;labelBackgroundColor=none;strokeColor=#121211;strokeWidth=2;align=center;verticalAlign=middle;fontFamily=Helvetica;fontSize=12;fontColor=default;fillColor=#d5e8d4;direction=west;container=1;" vertex="1" parent="hIHACkJwHsmprk24S0Q3-102">
          <mxGeometry x="352.5" y="170" width="125" height="40" as="geometry">
            <mxRectangle x="-1020" y="-650" width="50" height="40" as="alternateBounds" />
          </mxGeometry>
        </mxCell>
        <mxCell id="hIHACkJwHsmprk24S0Q3-14" value="&lt;b&gt;&lt;font style=&quot;font-size: 16px;&quot; color=&quot;#000000&quot; face=&quot;Comic Sans MS&quot;&gt;num&lt;/font&gt;&lt;/b&gt;" style="text;strokeColor=none;align=center;fillColor=none;html=1;verticalAlign=middle;whiteSpace=wrap;rounded=0;fontFamily=Architects Daughter;fontSource=https://fonts.googleapis.com/css?family=Architects+Daughter;" vertex="1" parent="hIHACkJwHsmprk24S0Q3-12">
          <mxGeometry x="17.5" width="90" height="40" as="geometry" />
        </mxCell>
        <mxCell id="hIHACkJwHsmprk24S0Q3-17" value="" style="group;aspect=fixed;" vertex="1" connectable="0" parent="hIHACkJwHsmprk24S0Q3-102">
          <mxGeometry x="353.5" y="250" width="120" height="120" as="geometry" />
        </mxCell>
        <mxCell id="hIHACkJwHsmprk24S0Q3-15" value="" style="rhombus;whiteSpace=wrap;html=1;rounded=0;labelBackgroundColor=none;strokeColor=#0F140C;strokeWidth=2;align=center;verticalAlign=middle;fontFamily=Helvetica;fontSize=12;fontColor=default;fillColor=#d5e8d4;" vertex="1" parent="hIHACkJwHsmprk24S0Q3-17">
          <mxGeometry width="120" height="120" as="geometry" />
        </mxCell>
        <mxCell id="hIHACkJwHsmprk24S0Q3-16" value="&lt;b&gt;&lt;font style=&quot;font-size: 14px;&quot; color=&quot;#000000&quot; face=&quot;Comic Sans MS&quot;&gt;num&lt;/font&gt;&lt;/b&gt;&lt;div&gt;&lt;b&gt;&lt;font style=&quot;font-size: 14px;&quot; color=&quot;#000000&quot; face=&quot;Comic Sans MS&quot;&gt;&amp;gt;&lt;/font&gt;&lt;/b&gt;&lt;/div&gt;&lt;div&gt;&lt;b&gt;&lt;font style=&quot;font-size: 14px;&quot; color=&quot;#000000&quot; face=&quot;Comic Sans MS&quot;&gt;anterior&lt;/font&gt;&lt;/b&gt;&lt;/div&gt;" style="text;strokeColor=none;align=center;fillColor=none;html=1;verticalAlign=middle;whiteSpace=wrap;rounded=0;fontFamily=Architects Daughter;fontSource=https://fonts.googleapis.com/css?family=Architects+Daughter;" vertex="1" parent="hIHACkJwHsmprk24S0Q3-17">
          <mxGeometry x="25" y="33" width="70" height="50" as="geometry" />
        </mxCell>
        <mxCell id="hIHACkJwHsmprk24S0Q3-23" value="" style="group;aspect=fixed;" vertex="1" connectable="0" parent="hIHACkJwHsmprk24S0Q3-102">
          <mxGeometry x="172" y="390" width="210" height="40" as="geometry" />
        </mxCell>
        <mxCell id="hIHACkJwHsmprk24S0Q3-18" value="" style="rounded=0;whiteSpace=wrap;html=1;labelBackgroundColor=none;strokeColor=#0f100e;strokeWidth=2;align=center;verticalAlign=middle;fontFamily=Helvetica;fontSize=12;fontColor=default;fillColor=#d5e8d4;" vertex="1" parent="hIHACkJwHsmprk24S0Q3-23">
          <mxGeometry width="210" height="40" as="geometry" />
        </mxCell>
        <mxCell id="hIHACkJwHsmprk24S0Q3-20" value="&lt;b&gt;&lt;font style=&quot;font-size: 14px;&quot; color=&quot;#000000&quot; face=&quot;Comic Sans MS&quot;&gt;maximo = num&lt;/font&gt;&lt;/b&gt;&lt;div&gt;&lt;b&gt;&lt;font style=&quot;font-size: 14px;&quot; color=&quot;#000000&quot; face=&quot;Comic Sans MS&quot;&gt;segundo_maximo = anterior&lt;/font&gt;&lt;/b&gt;&lt;/div&gt;" style="text;strokeColor=none;align=center;fillColor=none;html=1;verticalAlign=middle;whiteSpace=wrap;rounded=0;fontFamily=Architects Daughter;fontSource=https://fonts.googleapis.com/css?family=Architects+Daughter;" vertex="1" parent="hIHACkJwHsmprk24S0Q3-23">
          <mxGeometry x="10" width="190" height="40" as="geometry" />
        </mxCell>
        <mxCell id="hIHACkJwHsmprk24S0Q3-24" value="" style="group;aspect=fixed;" vertex="1" connectable="0" parent="hIHACkJwHsmprk24S0Q3-102">
          <mxGeometry x="450" y="390" width="210" height="40" as="geometry" />
        </mxCell>
        <mxCell id="hIHACkJwHsmprk24S0Q3-25" value="" style="rounded=0;whiteSpace=wrap;html=1;labelBackgroundColor=none;strokeColor=#0f100e;strokeWidth=2;align=center;verticalAlign=middle;fontFamily=Helvetica;fontSize=12;fontColor=default;fillColor=#d5e8d4;" vertex="1" parent="hIHACkJwHsmprk24S0Q3-24">
          <mxGeometry width="210" height="40" as="geometry" />
        </mxCell>
        <mxCell id="hIHACkJwHsmprk24S0Q3-26" value="&lt;b&gt;&lt;font style=&quot;font-size: 14px;&quot; color=&quot;#000000&quot; face=&quot;Comic Sans MS&quot;&gt;maximo = anterior&lt;/font&gt;&lt;/b&gt;&lt;div&gt;&lt;b&gt;&lt;font style=&quot;font-size: 14px;&quot; color=&quot;#000000&quot; face=&quot;Comic Sans MS&quot;&gt;segundo_maximo = num&lt;/font&gt;&lt;/b&gt;&lt;/div&gt;" style="text;strokeColor=none;align=center;fillColor=none;html=1;verticalAlign=middle;whiteSpace=wrap;rounded=0;fontFamily=Architects Daughter;fontSource=https://fonts.googleapis.com/css?family=Architects+Daughter;" vertex="1" parent="hIHACkJwHsmprk24S0Q3-24">
          <mxGeometry x="10" width="190" height="40" as="geometry" />
        </mxCell>
        <mxCell id="hIHACkJwHsmprk24S0Q3-27" value="" style="line;strokeWidth=2;direction=south;html=1;hachureGap=4;fontFamily=Architects Daughter;fontSource=https://fonts.googleapis.com/css?family=Architects+Daughter;strokeColor=#000000;" vertex="1" parent="hIHACkJwHsmprk24S0Q3-102">
          <mxGeometry x="408.5" y="130" width="10" height="40" as="geometry" />
        </mxCell>
        <mxCell id="hIHACkJwHsmprk24S0Q3-28" value="" style="line;strokeWidth=2;direction=south;html=1;hachureGap=4;fontFamily=Architects Daughter;fontSource=https://fonts.googleapis.com/css?family=Architects+Daughter;strokeColor=#000000;" vertex="1" parent="hIHACkJwHsmprk24S0Q3-102">
          <mxGeometry x="408" y="210" width="10" height="40" as="geometry" />
        </mxCell>
        <mxCell id="hIHACkJwHsmprk24S0Q3-30" value="" style="line;strokeWidth=2;direction=south;html=1;hachureGap=4;fontFamily=Architects Daughter;fontSource=https://fonts.googleapis.com/css?family=Architects+Daughter;strokeColor=#000000;" vertex="1" parent="hIHACkJwHsmprk24S0Q3-102">
          <mxGeometry x="543" y="311" width="10" height="79" as="geometry" />
        </mxCell>
        <mxCell id="hIHACkJwHsmprk24S0Q3-31" value="" style="line;strokeWidth=2;direction=south;html=1;hachureGap=4;fontFamily=Architects Daughter;fontSource=https://fonts.googleapis.com/css?family=Architects+Daughter;strokeColor=#000000;" vertex="1" parent="hIHACkJwHsmprk24S0Q3-102">
          <mxGeometry x="267" y="430" width="10" height="40" as="geometry" />
        </mxCell>
        <mxCell id="hIHACkJwHsmprk24S0Q3-32" value="" style="line;strokeWidth=2;direction=south;html=1;hachureGap=4;fontFamily=Architects Daughter;fontSource=https://fonts.googleapis.com/css?family=Architects+Daughter;strokeColor=#000000;" vertex="1" parent="hIHACkJwHsmprk24S0Q3-102">
          <mxGeometry x="408" y="470" width="10" height="40" as="geometry" />
        </mxCell>
        <mxCell id="hIHACkJwHsmprk24S0Q3-33" value="" style="line;strokeWidth=2;direction=south;html=1;hachureGap=4;fontFamily=Architects Daughter;fontSource=https://fonts.googleapis.com/css?family=Architects+Daughter;strokeColor=#000000;" vertex="1" parent="hIHACkJwHsmprk24S0Q3-102">
          <mxGeometry x="410" y="50" width="10" height="40" as="geometry" />
        </mxCell>
        <mxCell id="hIHACkJwHsmprk24S0Q3-34" value="" style="line;strokeWidth=2;direction=south;html=1;hachureGap=4;fontFamily=Architects Daughter;fontSource=https://fonts.googleapis.com/css?family=Architects+Daughter;strokeColor=#000000;" vertex="1" parent="hIHACkJwHsmprk24S0Q3-102">
          <mxGeometry x="267" y="311" width="10" height="79" as="geometry" />
        </mxCell>
        <mxCell id="hIHACkJwHsmprk24S0Q3-36" value="" style="line;strokeWidth=2;html=1;perimeter=backbonePerimeter;points=[];outlineConnect=0;hachureGap=4;fontFamily=Architects Daughter;fontSource=https://fonts.googleapis.com/css?family=Architects+Daughter;strokeColor=#000000;" vertex="1" parent="hIHACkJwHsmprk24S0Q3-102">
          <mxGeometry x="270" y="464" width="280" height="10" as="geometry" />
        </mxCell>
        <mxCell id="hIHACkJwHsmprk24S0Q3-37" value="" style="line;strokeWidth=2;html=1;perimeter=backbonePerimeter;points=[];outlineConnect=0;hachureGap=4;fontFamily=Architects Daughter;fontSource=https://fonts.googleapis.com/css?family=Architects+Daughter;strokeColor=#000000;" vertex="1" parent="hIHACkJwHsmprk24S0Q3-102">
          <mxGeometry x="473.5" y="305" width="76.5" height="10" as="geometry" />
        </mxCell>
        <mxCell id="hIHACkJwHsmprk24S0Q3-39" value="" style="line;strokeWidth=2;html=1;perimeter=backbonePerimeter;points=[];outlineConnect=0;hachureGap=4;fontFamily=Architects Daughter;fontSource=https://fonts.googleapis.com/css?family=Architects+Daughter;strokeColor=#000000;" vertex="1" parent="hIHACkJwHsmprk24S0Q3-102">
          <mxGeometry x="270" y="305" width="82.5" height="10" as="geometry" />
        </mxCell>
        <mxCell id="hIHACkJwHsmprk24S0Q3-41" value="" style="line;strokeWidth=2;direction=south;html=1;hachureGap=4;fontFamily=Architects Daughter;fontSource=https://fonts.googleapis.com/css?family=Architects+Daughter;strokeColor=#000000;" vertex="1" parent="hIHACkJwHsmprk24S0Q3-102">
          <mxGeometry x="542" y="430" width="10" height="40" as="geometry" />
        </mxCell>
        <mxCell id="hIHACkJwHsmprk24S0Q3-49" value="" style="whiteSpace=wrap;html=1;rounded=0;labelBackgroundColor=none;strokeColor=#000000;strokeWidth=2;align=center;verticalAlign=middle;fontFamily=Helvetica;fontSize=12;fontColor=default;fillColor=#d5e8d4;" vertex="1" parent="hIHACkJwHsmprk24S0Q3-102">
          <mxGeometry x="96" y="510" width="638" height="610" as="geometry" />
        </mxCell>
        <mxCell id="hIHACkJwHsmprk24S0Q3-59" value="" style="group;aspect=fixed;" vertex="1" connectable="0" parent="hIHACkJwHsmprk24S0Q3-102">
          <mxGeometry x="412" y="660" width="130" height="160" as="geometry" />
        </mxCell>
        <mxCell id="hIHACkJwHsmprk24S0Q3-57" value="" style="rhombus;whiteSpace=wrap;html=1;rounded=0;labelBackgroundColor=none;strokeColor=#0F140C;strokeWidth=2;align=center;verticalAlign=middle;fontFamily=Helvetica;fontSize=12;fontColor=default;fillColor=#d5e8d4;" vertex="1" parent="hIHACkJwHsmprk24S0Q3-59">
          <mxGeometry width="130" height="160" as="geometry" />
        </mxCell>
        <mxCell id="hIHACkJwHsmprk24S0Q3-58" value="&lt;span style=&quot;font-size: 15px;&quot;&gt;&lt;font style=&quot;font-size: 15px;&quot; color=&quot;#000000&quot; face=&quot;Comic Sans MS&quot;&gt;&lt;b&gt;num&amp;nbsp;&lt;/b&gt;&lt;/font&gt;&lt;/span&gt;&lt;div style=&quot;font-size: 15px;&quot;&gt;&lt;font style=&quot;font-size: 15px;&quot; color=&quot;#000000&quot; face=&quot;Comic Sans MS&quot;&gt;&lt;b&gt;&amp;gt;&amp;nbsp;&lt;/b&gt;&lt;/font&gt;&lt;/div&gt;&lt;div style=&quot;font-size: 15px;&quot;&gt;&lt;font style=&quot;font-size: 15px;&quot; color=&quot;#000000&quot; face=&quot;Comic Sans MS&quot;&gt;&lt;b&gt;maximo&lt;/b&gt;&lt;/font&gt;&lt;/div&gt;" style="text;strokeColor=none;align=center;fillColor=none;html=1;verticalAlign=middle;whiteSpace=wrap;rounded=0;fontFamily=Architects Daughter;fontSource=https://fonts.googleapis.com/css?family=Architects+Daughter;" vertex="1" parent="hIHACkJwHsmprk24S0Q3-59">
          <mxGeometry x="20" y="50" width="90" height="55" as="geometry" />
        </mxCell>
        <mxCell id="hIHACkJwHsmprk24S0Q3-61" value="" style="group;aspect=fixed;" vertex="1" connectable="0" parent="hIHACkJwHsmprk24S0Q3-102">
          <mxGeometry x="408" y="570" width="130" height="40" as="geometry" />
        </mxCell>
        <mxCell id="hIHACkJwHsmprk24S0Q3-11" value="" style="shape=trapezoid;perimeter=trapezoidPerimeter;whiteSpace=wrap;html=1;fixedSize=1;rounded=0;labelBackgroundColor=none;strokeColor=#121211;strokeWidth=2;align=center;verticalAlign=middle;fontFamily=Helvetica;fontSize=12;fontColor=default;fillColor=#d5e8d4;direction=west;container=0;aspect=fixed;" vertex="1" parent="hIHACkJwHsmprk24S0Q3-61">
          <mxGeometry width="130" height="40" as="geometry">
            <mxRectangle x="-1020" y="-650" width="50" height="40" as="alternateBounds" />
          </mxGeometry>
        </mxCell>
        <mxCell id="hIHACkJwHsmprk24S0Q3-60" value="&lt;b&gt;&lt;font style=&quot;font-size: 16px;&quot; color=&quot;#000000&quot; face=&quot;Comic Sans MS&quot;&gt;num&lt;/font&gt;&lt;/b&gt;" style="text;strokeColor=none;align=center;fillColor=none;html=1;verticalAlign=middle;whiteSpace=wrap;rounded=0;fontFamily=Architects Daughter;fontSource=https://fonts.googleapis.com/css?family=Architects+Daughter;aspect=fixed;container=0;" vertex="1" parent="hIHACkJwHsmprk24S0Q3-61">
          <mxGeometry x="20" width="90" height="40" as="geometry" />
        </mxCell>
        <mxCell id="hIHACkJwHsmprk24S0Q3-66" value="" style="group;aspect=fixed;" vertex="1" connectable="0" parent="hIHACkJwHsmprk24S0Q3-102">
          <mxGeometry y="540" width="190" height="190" as="geometry" />
        </mxCell>
        <mxCell id="hIHACkJwHsmprk24S0Q3-51" value="" style="ellipse;whiteSpace=wrap;html=1;aspect=fixed;rounded=0;labelBackgroundColor=none;strokeColor=#0F140C;strokeWidth=3;align=center;verticalAlign=middle;fontFamily=Helvetica;fontSize=12;fontColor=default;fillColor=#d5e8d4;container=0;" vertex="1" parent="hIHACkJwHsmprk24S0Q3-66">
          <mxGeometry width="190" height="190" as="geometry" />
        </mxCell>
        <mxCell id="hIHACkJwHsmprk24S0Q3-52" value="" style="endArrow=none;html=1;rounded=0;strokeColor=#0F140C;fontFamily=Helvetica;fontSize=12;fontColor=default;fillColor=#B2C9AB;strokeWidth=2;" edge="1" parent="hIHACkJwHsmprk24S0Q3-66">
          <mxGeometry width="50" height="50" relative="1" as="geometry">
            <mxPoint x="182.4" y="53.200000000000045" as="sourcePoint" />
            <mxPoint x="7.600000000000023" y="53.200000000000045" as="targetPoint" />
          </mxGeometry>
        </mxCell>
        <mxCell id="hIHACkJwHsmprk24S0Q3-53" value="" style="endArrow=none;html=1;rounded=0;strokeColor=#0F140C;fontFamily=Helvetica;fontSize=12;fontColor=default;fillColor=#B2C9AB;exitX=0.264;exitY=0.952;exitDx=0;exitDy=0;exitPerimeter=0;strokeWidth=2;" edge="1" parent="hIHACkJwHsmprk24S0Q3-66" source="hIHACkJwHsmprk24S0Q3-51">
          <mxGeometry width="50" height="50" relative="1" as="geometry">
            <mxPoint x="45.599999999999994" y="114" as="sourcePoint" />
            <mxPoint x="53.19999999999999" y="53.200000000000045" as="targetPoint" />
          </mxGeometry>
        </mxCell>
        <mxCell id="hIHACkJwHsmprk24S0Q3-54" value="" style="endArrow=none;html=1;rounded=0;strokeColor=#0F140C;fontFamily=Helvetica;fontSize=12;fontColor=default;fillColor=#B2C9AB;exitX=0.728;exitY=0.948;exitDx=0;exitDy=0;exitPerimeter=0;strokeWidth=2;" edge="1" parent="hIHACkJwHsmprk24S0Q3-66" source="hIHACkJwHsmprk24S0Q3-51">
          <mxGeometry width="50" height="50" relative="1" as="geometry">
            <mxPoint x="114" y="129.20000000000005" as="sourcePoint" />
            <mxPoint x="138.32000000000002" y="53.200000000000045" as="targetPoint" />
          </mxGeometry>
        </mxCell>
        <mxCell id="hIHACkJwHsmprk24S0Q3-62" value="&lt;b&gt;&lt;font style=&quot;font-size: 20px;&quot; color=&quot;#000000&quot; face=&quot;Comic Sans MS&quot;&gt;x&lt;/font&gt;&lt;/b&gt;" style="text;strokeColor=none;align=center;fillColor=none;html=1;verticalAlign=middle;whiteSpace=wrap;rounded=0;fontFamily=Architects Daughter;fontSource=https://fonts.googleapis.com/css?family=Architects+Daughter;container=0;" vertex="1" parent="hIHACkJwHsmprk24S0Q3-66">
          <mxGeometry x="70" y="10" width="50" height="40" as="geometry" />
        </mxCell>
        <mxCell id="hIHACkJwHsmprk24S0Q3-63" value="&lt;b&gt;&lt;font style=&quot;font-size: 15px;&quot; color=&quot;#000000&quot; face=&quot;Comic Sans MS&quot;&gt;x = 0&lt;/font&gt;&lt;/b&gt;" style="text;strokeColor=none;align=center;fillColor=none;html=1;verticalAlign=middle;whiteSpace=wrap;rounded=0;fontFamily=Architects Daughter;fontSource=https://fonts.googleapis.com/css?family=Architects+Daughter;container=0;" vertex="1" parent="hIHACkJwHsmprk24S0Q3-66">
          <mxGeometry y="84" width="50" height="30" as="geometry" />
        </mxCell>
        <mxCell id="hIHACkJwHsmprk24S0Q3-65" value="&lt;b&gt;&lt;font style=&quot;font-size: 15px;&quot; color=&quot;#000000&quot; face=&quot;Comic Sans MS&quot;&gt;x &amp;lt; 3&lt;/font&gt;&lt;/b&gt;" style="text;strokeColor=none;align=center;fillColor=none;html=1;verticalAlign=middle;whiteSpace=wrap;rounded=0;fontFamily=Architects Daughter;fontSource=https://fonts.googleapis.com/css?family=Architects+Daughter;container=0;" vertex="1" parent="hIHACkJwHsmprk24S0Q3-66">
          <mxGeometry x="70" y="84" width="50" height="30" as="geometry" />
        </mxCell>
        <mxCell id="hIHACkJwHsmprk24S0Q3-64" value="&lt;b&gt;&lt;font style=&quot;font-size: 15px;&quot; color=&quot;#000000&quot; face=&quot;Comic Sans MS&quot;&gt;x++&lt;/font&gt;&lt;/b&gt;" style="text;strokeColor=none;align=center;fillColor=none;html=1;verticalAlign=middle;whiteSpace=wrap;rounded=0;fontFamily=Architects Daughter;fontSource=https://fonts.googleapis.com/css?family=Architects+Daughter;container=0;" vertex="1" parent="hIHACkJwHsmprk24S0Q3-66">
          <mxGeometry x="136" y="84" width="50" height="30" as="geometry" />
        </mxCell>
        <mxCell id="hIHACkJwHsmprk24S0Q3-67" value="" style="group;aspect=fixed;" vertex="1" connectable="0" parent="hIHACkJwHsmprk24S0Q3-102">
          <mxGeometry x="543" y="800" width="130" height="160" as="geometry" />
        </mxCell>
        <mxCell id="hIHACkJwHsmprk24S0Q3-68" value="" style="rhombus;whiteSpace=wrap;html=1;rounded=0;labelBackgroundColor=none;strokeColor=#0F140C;strokeWidth=2;align=center;verticalAlign=middle;fontFamily=Helvetica;fontSize=12;fontColor=default;fillColor=#d5e8d4;" vertex="1" parent="hIHACkJwHsmprk24S0Q3-67">
          <mxGeometry width="130" height="160" as="geometry" />
        </mxCell>
        <mxCell id="hIHACkJwHsmprk24S0Q3-69" value="&lt;font style=&quot;font-size: 13px;&quot; color=&quot;#000000&quot; face=&quot;Comic Sans MS&quot;&gt;&lt;b style=&quot;&quot;&gt;num&amp;nbsp;&lt;/b&gt;&lt;/font&gt;&lt;div style=&quot;font-size: 13px;&quot;&gt;&lt;font style=&quot;font-size: 13px;&quot; color=&quot;#000000&quot; face=&quot;Comic Sans MS&quot;&gt;&lt;b&gt;&amp;gt;&amp;nbsp;&lt;/b&gt;&lt;/font&gt;&lt;/div&gt;&lt;div style=&quot;font-size: 13px;&quot;&gt;&lt;font style=&quot;font-size: 13px;&quot; face=&quot;Comic Sans MS&quot; color=&quot;#000000&quot;&gt;&lt;b style=&quot;&quot;&gt;segundo_maximo&lt;/b&gt;&lt;/font&gt;&lt;/div&gt;" style="text;strokeColor=none;align=center;fillColor=none;html=1;verticalAlign=middle;whiteSpace=wrap;rounded=0;fontFamily=Architects Daughter;fontSource=https://fonts.googleapis.com/css?family=Architects+Daughter;" vertex="1" parent="hIHACkJwHsmprk24S0Q3-67">
          <mxGeometry x="20" y="41" width="90" height="55" as="geometry" />
        </mxCell>
        <mxCell id="hIHACkJwHsmprk24S0Q3-72" value="" style="group;aspect=fixed;" vertex="1" connectable="0" parent="hIHACkJwHsmprk24S0Q3-102">
          <mxGeometry x="233.5" y="810" width="240" height="240" as="geometry" />
        </mxCell>
        <mxCell id="hIHACkJwHsmprk24S0Q3-19" value="" style="rounded=0;whiteSpace=wrap;html=1;labelBackgroundColor=none;strokeColor=#0f100e;strokeWidth=2;align=center;verticalAlign=middle;fontFamily=Helvetica;fontSize=12;fontColor=default;fillColor=#d5e8d4;container=0;aspect=fixed;" vertex="1" parent="hIHACkJwHsmprk24S0Q3-72">
          <mxGeometry x="40" y="15" width="160" height="40" as="geometry" />
        </mxCell>
        <mxCell id="hIHACkJwHsmprk24S0Q3-70" value="&lt;span style=&quot;font-size: 15px;&quot;&gt;&lt;font style=&quot;font-size: 15px;&quot; color=&quot;#000000&quot; face=&quot;Comic Sans MS&quot;&gt;&lt;b&gt;segundo_maximo&lt;/b&gt;&lt;/font&gt;&lt;/span&gt;&lt;div style=&quot;font-size: 15px;&quot;&gt;&lt;font style=&quot;font-size: 15px;&quot; color=&quot;#000000&quot; face=&quot;Comic Sans MS&quot;&gt;&lt;b&gt;maximo = num&lt;/b&gt;&lt;/font&gt;&lt;/div&gt;" style="text;strokeColor=none;align=center;fillColor=none;html=1;verticalAlign=middle;whiteSpace=wrap;rounded=0;fontFamily=Architects Daughter;fontSource=https://fonts.googleapis.com/css?family=Architects+Daughter;container=0;" vertex="1" parent="hIHACkJwHsmprk24S0Q3-72">
          <mxGeometry width="240" height="70" as="geometry" />
        </mxCell>
        <mxCell id="hIHACkJwHsmprk24S0Q3-97" value="" style="line;strokeWidth=2;direction=south;html=1;hachureGap=4;fontFamily=Architects Daughter;fontSource=https://fonts.googleapis.com/css?family=Architects+Daughter;strokeColor=#000000;" vertex="1" parent="hIHACkJwHsmprk24S0Q3-72">
          <mxGeometry x="113" y="55" width="10" height="185" as="geometry" />
        </mxCell>
        <mxCell id="hIHACkJwHsmprk24S0Q3-75" value="" style="group;aspect=fixed;" vertex="1" connectable="0" parent="hIHACkJwHsmprk24S0Q3-102">
          <mxGeometry x="382" y="930" width="190" height="38" as="geometry" />
        </mxCell>
        <mxCell id="hIHACkJwHsmprk24S0Q3-73" value="" style="rounded=0;whiteSpace=wrap;html=1;labelBackgroundColor=none;strokeColor=#0f100e;strokeWidth=2;align=center;verticalAlign=middle;fontFamily=Helvetica;fontSize=12;fontColor=default;fillColor=#d5e8d4;" vertex="1" parent="hIHACkJwHsmprk24S0Q3-75">
          <mxGeometry width="190" height="38" as="geometry" />
        </mxCell>
        <mxCell id="hIHACkJwHsmprk24S0Q3-74" value="&lt;font face=&quot;Comic Sans MS&quot; color=&quot;#000000&quot;&gt;&lt;span style=&quot;font-size: 15px;&quot;&gt;&lt;b&gt;segundo_maximo = num&lt;/b&gt;&lt;/span&gt;&lt;/font&gt;" style="text;strokeColor=none;align=center;fillColor=none;html=1;verticalAlign=middle;whiteSpace=wrap;rounded=0;fontFamily=Architects Daughter;fontSource=https://fonts.googleapis.com/css?family=Architects+Daughter;" vertex="1" parent="hIHACkJwHsmprk24S0Q3-75">
          <mxGeometry x="7.125" y="4.75" width="173.375" height="28.5" as="geometry" />
        </mxCell>
        <mxCell id="hIHACkJwHsmprk24S0Q3-78" value="" style="group;aspect=fixed;" vertex="1" connectable="0" parent="hIHACkJwHsmprk24S0Q3-102">
          <mxGeometry x="293" y="1170" width="240" height="50" as="geometry" />
        </mxCell>
        <mxCell id="hIHACkJwHsmprk24S0Q3-76" value="" style="shape=trapezoid;perimeter=trapezoidPerimeter;whiteSpace=wrap;html=1;fixedSize=1;rounded=0;labelBackgroundColor=none;strokeColor=#0F140C;strokeWidth=2;align=center;verticalAlign=middle;fontFamily=Helvetica;fontSize=12;fontColor=default;fillColor=#d5e8d4;" vertex="1" parent="hIHACkJwHsmprk24S0Q3-78">
          <mxGeometry width="240" height="50" as="geometry" />
        </mxCell>
        <mxCell id="hIHACkJwHsmprk24S0Q3-77" value="&lt;font face=&quot;Comic Sans MS&quot; color=&quot;#000000&quot;&gt;&lt;span style=&quot;font-size: 15px;&quot;&gt;&lt;b&gt;maximo, segundo_maximo&lt;/b&gt;&lt;/span&gt;&lt;/font&gt;" style="text;strokeColor=none;align=center;fillColor=none;html=1;verticalAlign=middle;whiteSpace=wrap;rounded=0;fontFamily=Architects Daughter;fontSource=https://fonts.googleapis.com/css?family=Architects+Daughter;" vertex="1" parent="hIHACkJwHsmprk24S0Q3-78">
          <mxGeometry x="26.25" y="10" width="187.5" height="30" as="geometry" />
        </mxCell>
        <mxCell id="hIHACkJwHsmprk24S0Q3-79" value="" style="line;strokeWidth=2;direction=south;html=1;hachureGap=4;fontFamily=Architects Daughter;fontSource=https://fonts.googleapis.com/css?family=Architects+Daughter;strokeColor=#000000;" vertex="1" parent="hIHACkJwHsmprk24S0Q3-102">
          <mxGeometry x="472" y="610" width="10" height="50" as="geometry" />
        </mxCell>
        <mxCell id="hIHACkJwHsmprk24S0Q3-80" value="" style="line;strokeWidth=2;direction=south;html=1;hachureGap=4;fontFamily=Architects Daughter;fontSource=https://fonts.googleapis.com/css?family=Architects+Daughter;strokeColor=#000000;" vertex="1" parent="hIHACkJwHsmprk24S0Q3-102">
          <mxGeometry x="344.5" y="738" width="10" height="90" as="geometry" />
        </mxCell>
        <mxCell id="hIHACkJwHsmprk24S0Q3-81" value="" style="line;strokeWidth=2;direction=south;html=1;hachureGap=4;fontFamily=Architects Daughter;fontSource=https://fonts.googleapis.com/css?family=Architects+Daughter;strokeColor=#000000;" vertex="1" parent="hIHACkJwHsmprk24S0Q3-102">
          <mxGeometry x="603" y="738" width="10" height="62" as="geometry" />
        </mxCell>
        <mxCell id="hIHACkJwHsmprk24S0Q3-82" value="" style="line;strokeWidth=2;direction=south;html=1;hachureGap=4;fontFamily=Architects Daughter;fontSource=https://fonts.googleapis.com/css?family=Architects+Daughter;strokeColor=#000000;" vertex="1" parent="hIHACkJwHsmprk24S0Q3-102">
          <mxGeometry x="477.5" y="880" width="10" height="50" as="geometry" />
        </mxCell>
        <mxCell id="hIHACkJwHsmprk24S0Q3-84" value="" style="line;strokeWidth=2;html=1;perimeter=backbonePerimeter;points=[];outlineConnect=0;hachureGap=4;fontFamily=Architects Daughter;fontSource=https://fonts.googleapis.com/css?family=Architects+Daughter;strokeColor=#000000;" vertex="1" parent="hIHACkJwHsmprk24S0Q3-102">
          <mxGeometry x="542" y="735" width="68" height="10" as="geometry" />
        </mxCell>
        <mxCell id="hIHACkJwHsmprk24S0Q3-85" value="" style="line;strokeWidth=2;html=1;perimeter=backbonePerimeter;points=[];outlineConnect=0;hachureGap=4;fontFamily=Architects Daughter;fontSource=https://fonts.googleapis.com/css?family=Architects+Daughter;strokeColor=#000000;" vertex="1" parent="hIHACkJwHsmprk24S0Q3-102">
          <mxGeometry x="350" y="735" width="62" height="10" as="geometry" />
        </mxCell>
        <mxCell id="hIHACkJwHsmprk24S0Q3-87" value="" style="line;strokeWidth=2;html=1;perimeter=backbonePerimeter;points=[];outlineConnect=0;hachureGap=4;fontFamily=Architects Daughter;fontSource=https://fonts.googleapis.com/css?family=Architects+Daughter;strokeColor=#000000;" vertex="1" parent="hIHACkJwHsmprk24S0Q3-102">
          <mxGeometry x="350" y="1046" width="255" height="10" as="geometry" />
        </mxCell>
        <mxCell id="hIHACkJwHsmprk24S0Q3-90" value="" style="line;strokeWidth=2;html=1;perimeter=backbonePerimeter;points=[];outlineConnect=0;hachureGap=4;fontFamily=Architects Daughter;fontSource=https://fonts.googleapis.com/css?family=Architects+Daughter;strokeColor=#000000;" vertex="1" parent="hIHACkJwHsmprk24S0Q3-102">
          <mxGeometry x="480" y="875" width="62" height="10" as="geometry" />
        </mxCell>
        <mxCell id="hIHACkJwHsmprk24S0Q3-91" value="" style="line;strokeWidth=2;direction=south;html=1;hachureGap=4;fontFamily=Architects Daughter;fontSource=https://fonts.googleapis.com/css?family=Architects+Daughter;strokeColor=#000000;" vertex="1" parent="hIHACkJwHsmprk24S0Q3-102">
          <mxGeometry x="408.5" y="1220" width="10" height="40" as="geometry" />
        </mxCell>
        <mxCell id="hIHACkJwHsmprk24S0Q3-93" value="" style="line;strokeWidth=2;direction=south;html=1;hachureGap=4;fontFamily=Architects Daughter;fontSource=https://fonts.googleapis.com/css?family=Architects+Daughter;strokeColor=#000000;" vertex="1" parent="hIHACkJwHsmprk24S0Q3-102">
          <mxGeometry x="477.5" y="968" width="10" height="42" as="geometry" />
        </mxCell>
        <mxCell id="hIHACkJwHsmprk24S0Q3-94" value="" style="line;strokeWidth=2;direction=south;html=1;hachureGap=4;fontFamily=Architects Daughter;fontSource=https://fonts.googleapis.com/css?family=Architects+Daughter;strokeColor=#000000;" vertex="1" parent="hIHACkJwHsmprk24S0Q3-102">
          <mxGeometry x="410" y="1120" width="10" height="50" as="geometry" />
        </mxCell>
        <mxCell id="hIHACkJwHsmprk24S0Q3-95" value="" style="line;strokeWidth=2;direction=south;html=1;hachureGap=4;fontFamily=Architects Daughter;fontSource=https://fonts.googleapis.com/css?family=Architects+Daughter;strokeColor=#000000;" vertex="1" parent="hIHACkJwHsmprk24S0Q3-102">
          <mxGeometry x="600" y="1010" width="10" height="40" as="geometry" />
        </mxCell>
        <mxCell id="hIHACkJwHsmprk24S0Q3-96" value="" style="line;strokeWidth=2;direction=south;html=1;hachureGap=4;fontFamily=Architects Daughter;fontSource=https://fonts.googleapis.com/css?family=Architects+Daughter;strokeColor=#000000;" vertex="1" parent="hIHACkJwHsmprk24S0Q3-102">
          <mxGeometry x="712" y="880" width="10" height="130" as="geometry" />
        </mxCell>
        <mxCell id="hIHACkJwHsmprk24S0Q3-100" value="" style="line;strokeWidth=2;html=1;perimeter=backbonePerimeter;points=[];outlineConnect=0;hachureGap=4;fontFamily=Architects Daughter;fontSource=https://fonts.googleapis.com/css?family=Architects+Daughter;strokeColor=#000000;" vertex="1" parent="hIHACkJwHsmprk24S0Q3-102">
          <mxGeometry x="673" y="875" width="47" height="10" as="geometry" />
        </mxCell>
        <mxCell id="hIHACkJwHsmprk24S0Q3-101" value="" style="line;strokeWidth=2;html=1;perimeter=backbonePerimeter;points=[];outlineConnect=0;hachureGap=4;fontFamily=Architects Daughter;fontSource=https://fonts.googleapis.com/css?family=Architects+Daughter;strokeColor=#000000;" vertex="1" parent="hIHACkJwHsmprk24S0Q3-102">
          <mxGeometry x="481" y="1006" width="239" height="10" as="geometry" />
        </mxCell>
      </root>
    </mxGraphModel>
  </diagram>
</mxfile>
